<svg width="201" height="49" viewBox="0 0 201 49" fill="none" xmlns="http://www.w3.org/2000/svg">
<path fill-rule="evenodd" clip-rule="evenodd" d="M24.5 41C33.6127 41 41 33.6127 41 24.5C41 15.3873 33.6127 8 24.5 8C15.3873 8 8 15.3873 8 24.5C8 33.6127 15.3873 41 24.5 41ZM30.163 25.4268C30.3254 25.1454 30.4088 24.8248 30.4045 24.5C30.4088 24.1752 30.3254 23.8547 30.163 23.5733C30.0001 23.2918 29.7647 23.0594 29.4811 22.9008L23.3657 19.3705C23.0864 19.2042 22.7676 19.1165 22.4423 19.1165C22.1171 19.1165 21.7982 19.2042 21.5189 19.3705C21.2353 19.5294 20.9999 19.7615 20.8375 20.0429C20.6746 20.3244 20.5912 20.6445 20.5955 20.9693V28.0308C20.5912 28.3556 20.6746 28.6757 20.837 28.9576C20.9999 29.2391 21.2353 29.4715 21.5189 29.6301C21.7982 29.7964 22.1171 29.8845 22.4423 29.8845C22.7676 29.8845 23.0864 29.7964 23.3657 29.6301L29.4811 26.0993C29.7647 25.9407 30.0001 25.7083 30.163 25.4268Z" fill="white"/>
<rect x="51" y="19" width="2" height="12" rx="1" fill="white"/>
<rect x="56" y="16" width="2" height="18" rx="1" fill="white"/>
<rect x="61" y="14" width="2" height="22" rx="1" fill="white"/>
<rect x="66" y="21" width="2" height="8" rx="1" fill="white"/>
<rect x="71" y="19" width="2" height="12" rx="1" fill="white"/>
<rect x="76" y="21" width="2" height="8" rx="1" fill="white"/>
<rect x="81" y="17" width="2" height="16" rx="1" fill="white"/>
<rect x="86" y="16" width="2" height="18" rx="1" fill="white"/>
<rect x="91" y="19" width="2" height="12" rx="1" fill="white"/>
<rect x="96" y="17" width="2" height="16" rx="1" fill="white"/>
<rect x="101" y="19" width="2" height="12" rx="1" fill="white"/>
<rect x="106" y="21" width="2" height="8" rx="1" fill="white"/>
<rect x="111" y="19" width="2" height="12" rx="1" fill="white"/>
<rect x="116" y="21" width="2" height="8" rx="1" fill="white"/>
<rect x="121" y="19" width="2" height="12" rx="1" fill="white"/>
<rect x="126" y="17" width="2" height="16" rx="1" fill="white"/>
<rect x="131" y="16" width="2" height="18" rx="1" fill="white"/>
<rect x="136" y="18" width="2" height="14" rx="1" fill="white"/>
<rect x="141" y="19" width="2" height="12" rx="1" fill="white"/>
<rect x="146" y="16" width="2" height="18" rx="1" fill="white"/>
<rect x="151" y="20" width="2" height="10" rx="1" fill="white"/>
<rect x="156" y="22" width="2" height="6" rx="1" fill="white"/>
<rect x="161" y="23" width="2" height="4" rx="1" fill="white"/>
<rect x="166" y="20" width="2" height="10" rx="1" fill="white"/>
<rect x="171" y="19" width="2" height="12" rx="1" fill="white"/>
<rect x="176" y="17" width="2" height="16" rx="1" fill="white"/>
<rect x="181" y="17" width="2" height="16" rx="1" fill="white"/>
<rect x="186" y="19" width="2" height="12" rx="1" fill="white"/>
<rect x="191" y="22" width="2" height="6" rx="1" fill="white"/>
</svg>
